<svg width="32" height="32" viewBox="0 0 32 32" fill="none" xmlns="http://www.w3.org/2000/svg">
<path d="M5.24219 15.584C5.24219 16.7676 5.56738 17.6758 6.21777 18.3086C6.87402 18.9414 7.82031 19.2578 9.05664 19.2578H12.0801C12.8477 19.3516 13.6182 19.4863 14.3916 19.6621C15.165 19.832 15.9355 20.0459 16.7031 20.3037C17.4766 20.5615 18.2354 20.8633 18.9795 21.209C19.7295 21.5547 20.4619 21.9443 21.1768 22.3779V20.541C20.4854 20.1309 19.7734 19.7646 19.041 19.4424C18.3145 19.1143 17.5674 18.8301 16.7998 18.5898C16.0381 18.3438 15.2588 18.1416 14.4619 17.9834C13.665 17.8193 12.8564 17.6934 12.0361 17.6055H9.05664C8.27734 17.6055 7.7207 17.4502 7.38672 17.1396C7.05859 16.8291 6.89453 16.3105 6.89453 15.584V14.3096C6.89453 13.583 7.05859 13.0645 7.38672 12.7539C7.7207 12.4375 8.27734 12.2793 9.05664 12.2793H11.957C12.7891 12.1973 13.6094 12.0742 14.418 11.9102C15.2324 11.7461 16.0264 11.5439 16.7998 11.3037C17.5732 11.0576 18.3262 10.7734 19.0586 10.4512C19.791 10.123 20.4971 9.75098 21.1768 9.33496V7.50684C20.5088 7.93457 19.7939 8.32129 19.0322 8.66699C18.2705 9.0127 17.4912 9.32031 16.6943 9.58984C15.9033 9.85938 15.1211 10.082 14.3477 10.2578C13.5742 10.4277 12.8359 10.5508 12.1328 10.627H9.05664C7.82031 10.627 6.87402 10.9434 6.21777 11.5762C5.56738 12.209 5.24219 13.1201 5.24219 14.3096V15.584ZM13.6621 18.959H12.0801L12.8359 22.7471C12.8652 22.917 12.8418 23.0547 12.7656 23.1602C12.6953 23.2656 12.6016 23.3418 12.4844 23.3887C12.3555 23.4355 12.2178 23.4326 12.0713 23.3799C11.9248 23.333 11.8076 23.2188 11.7197 23.0371L9.72461 18.792H8.03711L10.1201 23.415C10.3721 23.9717 10.6738 24.373 11.0254 24.6191C11.3828 24.8652 11.7461 25 12.1152 25.0234C12.4844 25.0469 12.8213 25.0088 13.126 24.9092C13.5771 24.7568 13.9258 24.4756 14.1719 24.0654C14.418 23.6553 14.4795 23.1514 14.3564 22.5537L13.6621 18.959ZM10.7705 11.3125V18.5723H12.4316V11.3125H10.7705ZM20.5791 21.2793C20.5791 21.7363 20.6787 22.1406 20.8779 22.4922C21.0771 22.8438 21.3525 23.1191 21.7041 23.3184C22.0557 23.5176 22.457 23.6172 22.9082 23.6172C23.3711 23.6172 23.7754 23.5176 24.1211 23.3184C24.4727 23.1191 24.748 22.8438 24.9473 22.4922C25.1465 22.1406 25.2461 21.7363 25.2461 21.2793V8.54395C25.2461 8.08691 25.1465 7.68555 24.9473 7.33984C24.748 6.98828 24.4727 6.71289 24.1211 6.51367C23.7754 6.31445 23.3711 6.21484 22.9082 6.21484C22.457 6.21484 22.0557 6.31445 21.7041 6.51367C21.3525 6.71289 21.0771 6.98828 20.8779 7.33984C20.6787 7.68555 20.5791 8.08691 20.5791 8.54395V21.2793ZM22.2402 21.2793V8.54395C22.2402 8.33887 22.2988 8.1748 22.416 8.05176C22.5391 7.92871 22.7031 7.86719 22.9082 7.86719C23.1133 7.86719 23.2773 7.92871 23.4004 8.05176C23.5293 8.1748 23.5938 8.33887 23.5938 8.54395V21.2793C23.5938 21.4844 23.5293 21.6484 23.4004 21.7715C23.2773 21.8945 23.1133 21.9561 22.9082 21.9561C22.7031 21.9561 22.5391 21.8945 22.416 21.7715C22.2988 21.6484 22.2402 21.4844 22.2402 21.2793Z" fill="#1A1A1A"/>
</svg>
