<svg width="40" height="40" viewBox="0 0 40 40" fill="none" xmlns="http://www.w3.org/2000/svg">
<path d="M14.1067 32.3576H25.5505C26.6286 32.3576 27.441 32.0881 27.9875 31.549C28.5341 31.0175 28.8148 30.2126 28.8298 29.1345L28.9758 18.3757L31.4577 18.9372C32.0567 19.0645 32.5508 19.0084 32.9402 18.7688C33.3295 18.5292 33.5915 18.1137 33.7263 17.5222L34.7033 13.4904C34.8381 12.899 34.7932 12.3899 34.5686 11.9631C34.344 11.5363 33.9434 11.2032 33.3669 10.9636L25.5617 7.6506C25.3072 7.5383 25.0601 7.48589 24.8205 7.49338C24.5884 7.49338 24.3563 7.54579 24.1242 7.6506C23.6226 7.89019 23.1472 8.08859 22.698 8.24582C22.2488 8.39556 21.792 8.51161 21.3279 8.59396C20.8712 8.66883 20.3733 8.70627 19.8342 8.70627C19.2877 8.70627 18.7823 8.66883 18.3181 8.59396C17.8539 8.51161 17.3972 8.39556 16.948 8.24582C16.5062 8.08859 16.0308 7.89019 15.5217 7.6506C15.2896 7.54579 15.0575 7.49338 14.8254 7.49338C14.5933 7.48589 14.35 7.5383 14.0954 7.6506L6.27903 10.9636C5.71002 11.2032 5.30946 11.5363 5.07737 11.9631C4.85276 12.3899 4.81158 12.899 4.95383 13.4904L5.93088 17.5222C6.06565 18.1137 6.32395 18.5292 6.70579 18.7688C7.09511 19.0084 7.59299 19.0645 8.19944 18.9372L10.6814 18.3757L10.8161 29.1345C10.8311 30.2126 11.1119 31.0175 11.6584 31.549C12.205 32.0881 13.0211 32.3576 14.1067 32.3576ZM19.8342 12.4123C19.2203 12.4123 18.67 12.315 18.1833 12.1203C17.6967 11.9182 17.2774 11.6374 16.9255 11.278C16.5736 10.9112 16.3041 10.4769 16.1169 9.97531C16.6859 10.1775 17.2849 10.3347 17.9138 10.447C18.5427 10.5518 19.1828 10.6042 19.8342 10.6042C20.4706 10.6042 21.1032 10.5518 21.7322 10.447C22.3611 10.3347 22.96 10.1775 23.529 9.97531C23.3493 10.4695 23.0873 10.9 22.7429 11.2668C22.3985 11.6262 21.9792 11.907 21.4851 12.1091C20.9909 12.3112 20.4406 12.4123 19.8342 12.4123Z" fill="#A6ECB3"/>
</svg>
