<svg width="40" height="40" viewBox="0 0 40 40" fill="none" xmlns="http://www.w3.org/2000/svg">
<path d="M23.5288 11.7046C23.7609 11.7046 23.8844 11.5848 23.8994 11.3452C23.9818 10.6938 24.0641 10.1847 24.1465 9.81787C24.2363 9.45101 24.3748 9.17399 24.562 8.98682C24.7567 8.79964 25.0412 8.65739 25.4155 8.56006C25.7974 8.45524 26.3215 8.35042 26.9878 8.24561C27.2349 8.21566 27.3584 8.09587 27.3584 7.88623C27.3584 7.6766 27.2498 7.5568 27.0327 7.52686C26.3589 7.39958 25.8311 7.28727 25.4492 7.18994C25.0674 7.08512 24.7791 6.94287 24.5845 6.76318C24.3898 6.57601 24.2476 6.30273 24.1577 5.94336C24.0679 5.58398 23.9818 5.07861 23.8994 4.42725C23.8844 4.19515 23.7609 4.0791 23.5288 4.0791C23.3117 4.0791 23.1956 4.19141 23.1807 4.41602C23.0908 5.07487 23.001 5.59521 22.9111 5.97705C22.8288 6.3514 22.6903 6.6359 22.4956 6.83057C22.3084 7.01774 22.0202 7.15625 21.6309 7.24609C21.249 7.33594 20.7212 7.42952 20.0474 7.52686C19.9575 7.53434 19.8789 7.57178 19.8115 7.63916C19.7516 7.70654 19.7217 7.7889 19.7217 7.88623C19.7217 8.09587 19.8302 8.21566 20.0474 8.24561C20.7212 8.38037 21.249 8.50016 21.6309 8.60498C22.0202 8.7098 22.3084 8.85579 22.4956 9.04297C22.6903 9.22266 22.8288 9.49593 22.9111 9.86279C23.001 10.2222 23.0908 10.7238 23.1807 11.3677C23.1882 11.465 23.2256 11.5474 23.293 11.6147C23.3604 11.6746 23.439 11.7046 23.5288 11.7046ZM15.7349 8.69482C15.8921 8.69482 15.9857 8.61621 16.0156 8.45898C16.113 7.91243 16.2028 7.51937 16.2852 7.27979C16.375 7.0402 16.536 6.87549 16.7681 6.78564C17.0076 6.6958 17.4082 6.59847 17.9697 6.49365C18.1344 6.45622 18.2168 6.36637 18.2168 6.22412C18.2168 6.07438 18.1344 5.98079 17.9697 5.94336C17.5505 5.861 17.2248 5.78613 16.9927 5.71875C16.7681 5.65137 16.5996 5.56152 16.4873 5.44922C16.375 5.32943 16.2852 5.15723 16.2178 4.93262C16.1579 4.70801 16.0905 4.39355 16.0156 3.98926C15.9782 3.83203 15.8846 3.75342 15.7349 3.75342C15.5851 3.75342 15.4953 3.83203 15.4653 3.98926C15.383 4.39355 15.3118 4.71175 15.252 4.94385C15.1921 5.16846 15.106 5.34066 14.9937 5.46045C14.8813 5.58024 14.7091 5.67383 14.4771 5.74121C14.245 5.80111 13.923 5.86849 13.5112 5.94336C13.3465 5.98079 13.2642 6.07438 13.2642 6.22412C13.2642 6.36637 13.3465 6.45622 13.5112 6.49365C13.923 6.57601 14.245 6.65088 14.4771 6.71826C14.7091 6.78564 14.8813 6.87549 14.9937 6.98779C15.1134 7.1001 15.2033 7.2723 15.2632 7.50439C15.3231 7.73649 15.3905 8.05469 15.4653 8.45898C15.4953 8.61621 15.5851 8.69482 15.7349 8.69482ZM9.15381 34.2329C9.32601 34.2329 9.42708 34.1356 9.45703 33.9409C9.55436 33.3944 9.64421 32.9639 9.72656 32.6494C9.80892 32.3424 9.92871 32.1066 10.0859 31.9419C10.2432 31.7847 10.479 31.6611 10.7935 31.5713C11.1154 31.4814 11.5646 31.3841 12.1411 31.2793C12.3358 31.2344 12.4331 31.1258 12.4331 30.9536C12.4331 30.7814 12.3395 30.6766 12.1523 30.6392C11.5758 30.5269 11.1266 30.422 10.8047 30.3247C10.4902 30.2274 10.2544 30.1001 10.0972 29.9429C9.93994 29.7856 9.82015 29.5535 9.73779 29.2466C9.66292 28.9396 9.56934 28.5129 9.45703 27.9663C9.42708 27.7716 9.32601 27.6743 9.15381 27.6743C8.98161 27.6743 8.87305 27.7716 8.82812 27.9663C8.72331 28.5129 8.62972 28.9396 8.54736 29.2466C8.46501 29.561 8.34521 29.7969 8.18799 29.9541C8.03825 30.1188 7.80615 30.2461 7.4917 30.3359C7.18473 30.4333 6.73926 30.5343 6.15527 30.6392C5.96061 30.6691 5.86328 30.7739 5.86328 30.9536C5.86328 31.1258 5.96061 31.2344 6.15527 31.2793C6.73926 31.3916 7.18848 31.4927 7.50293 31.5825C7.81738 31.6799 8.05322 31.8071 8.21045 31.9644C8.36768 32.1291 8.48372 32.3649 8.55859 32.6719C8.64095 32.9788 8.73079 33.4056 8.82812 33.9521C8.87305 34.1393 8.98161 34.2329 9.15381 34.2329ZM15.1172 30.5269C16.0081 31.4178 16.944 32.0729 17.9248 32.4922C18.9056 32.9189 19.8939 33.1248 20.8896 33.1099C21.8929 33.0949 22.8625 32.874 23.7983 32.4473C24.7417 32.0205 25.6139 31.4066 26.415 30.6055C27.6354 29.3926 28.4028 28.131 28.7173 26.8208C29.0392 25.5031 28.9756 24.0806 28.5264 22.5532C28.4066 22.0516 28.2493 21.5425 28.0547 21.0259C27.8675 20.5093 27.6504 19.9927 27.4033 19.4761C27.1637 18.952 26.9129 18.4354 26.6509 17.9263C26.3963 17.4172 26.1418 16.9193 25.8872 16.4326C25.715 16.1032 25.5353 15.7588 25.3481 15.3994C25.161 15.04 24.9813 14.7106 24.8091 14.4111C24.6369 14.1042 24.4834 13.8796 24.3486 13.7373C24.1315 13.4902 23.8732 13.3592 23.5737 13.3442C23.2817 13.3293 23.0085 13.4341 22.7539 13.6587C22.4694 13.9132 22.3159 14.2165 22.2935 14.5684C22.271 14.9128 22.3534 15.3507 22.5405 15.8823L23.7983 19.3862C23.8732 19.5509 23.9032 19.6857 23.8882 19.7905C23.8807 19.8953 23.847 19.9814 23.7871 20.0488C23.7197 20.1162 23.6374 20.1499 23.54 20.1499C23.4427 20.1499 23.3267 20.0825 23.1919 19.9478L14.8027 11.5474C14.5482 11.2928 14.2412 11.1655 13.8818 11.1655C13.5299 11.1655 13.2305 11.2928 12.9834 11.5474C12.7214 11.8094 12.5903 12.1164 12.5903 12.4683C12.5903 12.8201 12.7214 13.1234 12.9834 13.3779L19.0815 19.4761C18.9393 19.5435 18.797 19.6183 18.6548 19.7007C18.5125 19.7756 18.3703 19.8617 18.228 19.959L11.1865 12.9175C10.9245 12.6554 10.6175 12.5244 10.2656 12.5244C9.91374 12.5244 9.61051 12.6554 9.35596 12.9175C9.1014 13.172 8.97412 13.4753 8.97412 13.8271C8.97412 14.179 9.1014 14.4823 9.35596 14.7368L16.3188 21.6997C16.214 21.827 16.1092 21.958 16.0044 22.0928C15.8996 22.2201 15.8022 22.3511 15.7124 22.4858L9.32227 16.0957C9.06771 15.8486 8.76074 15.7251 8.40137 15.7251C8.04948 15.7251 7.75 15.8486 7.50293 16.0957C7.24837 16.3503 7.12109 16.6572 7.12109 17.0166C7.12109 17.3685 7.24837 17.6717 7.50293 17.9263L14.4321 24.8555C14.3647 25.0352 14.3049 25.2148 14.2524 25.3945C14.2075 25.5667 14.1663 25.7352 14.1289 25.8999L9.31104 21.082C9.05648 20.82 8.74951 20.689 8.39014 20.689C8.03825 20.689 7.73503 20.8162 7.48047 21.0708C7.22591 21.3254 7.09863 21.6323 7.09863 21.9917C7.09863 22.3436 7.22591 22.6468 7.48047 22.9014L15.1172 30.5269ZM21.0806 13.5352L19.0928 11.5474C18.8382 11.2928 18.5312 11.1655 18.1719 11.1655C17.82 11.1655 17.5168 11.2928 17.2622 11.5474C17.2397 11.5698 17.221 11.5998 17.2061 11.6372L20.9795 15.4106C20.9421 15.0662 20.9308 14.7406 20.9458 14.4336C20.9608 14.1191 21.0057 13.8197 21.0806 13.5352ZM30.6938 30.6055C31.9142 29.3926 32.6854 28.131 33.0073 26.8208C33.3293 25.5031 33.2656 24.0768 32.8164 22.542C32.6966 22.0479 32.5394 21.5425 32.3447 21.0259C32.1501 20.5093 31.9329 19.9927 31.6934 19.4761C31.4613 18.952 31.2104 18.4354 30.9409 17.9263C30.6789 17.4172 30.4206 16.9193 30.166 16.4326C30.0013 16.1032 29.8254 15.7588 29.6382 15.3994C29.451 15.04 29.2713 14.7106 29.0991 14.4111C28.9269 14.1042 28.7734 13.8796 28.6387 13.7373C28.4215 13.4902 28.1632 13.3592 27.8638 13.3442C27.5718 13.3293 27.2985 13.4341 27.0439 13.6587C26.8418 13.8234 26.7033 14.0256 26.6284 14.2651C26.7707 14.5422 26.9092 14.8154 27.0439 15.085C27.1862 15.3545 27.3322 15.624 27.4819 15.8936C27.7215 16.3577 27.9723 16.8481 28.2344 17.3647C28.4964 17.8813 28.7472 18.4129 28.9868 18.9595C29.2264 19.4985 29.4435 20.0413 29.6382 20.5879C29.8328 21.1344 29.9901 21.666 30.1099 22.1826C30.634 24.0394 30.6864 25.7576 30.2671 27.3374C29.8478 28.9097 28.9494 30.3809 27.5718 31.751C27.0851 32.2451 26.5685 32.6756 26.022 33.0425C26.868 32.9302 27.6878 32.6681 28.4814 32.2563C29.2751 31.8446 30.0125 31.2943 30.6938 30.6055Z" fill="#A6ECB3"/>
</svg>
