<svg width="40" height="40" viewBox="0 0 40 40" fill="none" xmlns="http://www.w3.org/2000/svg">
<path d="M29.3022 14.7144C29.7664 14.7144 30.1895 14.6021 30.5713 14.3774C30.9531 14.1528 31.2563 13.8496 31.481 13.4678C31.7056 13.0859 31.8179 12.6629 31.8179 12.1987C31.8179 11.7345 31.7056 11.3115 31.481 10.9297C31.2563 10.5479 30.9531 10.2446 30.5713 10.02C30.1895 9.79541 29.7664 9.68311 29.3022 9.68311C28.8381 9.68311 28.415 9.79541 28.0332 10.02C27.6514 10.2446 27.3444 10.5479 27.1123 10.9297C26.8877 11.3115 26.7754 11.7345 26.7754 12.1987C26.7754 12.6629 26.8877 13.0859 27.1123 13.4678C27.3444 13.8496 27.6514 14.1528 28.0332 14.3774C28.415 14.6021 28.8381 14.7144 29.3022 14.7144ZM9.0874 17.9263H14.7139L18.083 20.9922C18.1579 21.0596 18.1803 21.1344 18.1504 21.2168C18.1204 21.2917 18.0531 21.3291 17.9482 21.3291H14.1187C13.9465 21.3291 13.7743 21.3553 13.6021 21.4077C13.4299 21.4526 13.2839 21.5387 13.1641 21.666L8.95264 25.8887C8.72054 26.1357 8.60075 26.424 8.59326 26.7534C8.59326 27.0754 8.71305 27.3599 8.95264 27.6069C9.19222 27.839 9.47673 27.9551 9.80615 27.9551C10.1431 27.9551 10.4313 27.839 10.6709 27.6069L14.4331 23.8335L19.0264 24.5972C19.7751 24.717 20.5088 24.6646 21.2275 24.4399C21.9463 24.2153 22.5789 23.826 23.1255 23.272L25.7085 20.7002C25.8058 20.5954 25.9069 20.5654 26.0117 20.6104C26.124 20.6553 26.1802 20.7451 26.1802 20.8799V22.6206L23.0469 25.7539C22.8073 25.986 22.6875 26.2705 22.6875 26.6074C22.695 26.9443 22.8148 27.2288 23.0469 27.4609C23.279 27.7005 23.571 27.8203 23.9229 27.8203C24.2523 27.8203 24.533 27.7005 24.7651 27.4609L28.2578 23.9795C28.4899 23.7399 28.606 23.4517 28.606 23.1147V17.9263C28.606 17.1626 28.3776 16.5524 27.9209 16.0957L21.104 9.3125V12.749L23.9116 15.5454C24.1138 15.7401 24.1138 15.9385 23.9116 16.1406L20.8569 19.2065L15.8706 15.7026C15.6759 15.5679 15.4326 15.5005 15.1406 15.5005H9.0874C8.743 15.5005 8.45101 15.6203 8.21143 15.8599C7.97933 16.0994 7.86328 16.384 7.86328 16.7134C7.86328 17.0428 7.97933 17.3273 8.21143 17.5669C8.45101 17.8065 8.743 17.9263 9.0874 17.9263ZM21.5757 29.6396C22.1522 29.6396 22.6688 29.5011 23.1255 29.2241C23.5897 28.9546 23.9565 28.5877 24.2261 28.1235C24.4956 27.6593 24.6266 27.1427 24.6191 26.5737H23.1929C23.2004 27.0454 23.0506 27.4385 22.7437 27.7529C22.4367 28.0599 22.0474 28.2134 21.5757 28.2134C21.1115 28.2134 20.7259 28.0786 20.4189 27.8091C20.112 27.5321 19.9585 27.1315 19.9585 26.6074V4.61816C19.9585 4.43099 19.8874 4.26628 19.7451 4.12402C19.6104 3.98177 19.4456 3.91064 19.251 3.91064C19.0563 3.91064 18.8879 3.98177 18.7456 4.12402C18.6034 4.26628 18.5322 4.43099 18.5322 4.61816V26.6074C18.5322 27.2288 18.667 27.7642 18.9365 28.2134C19.2061 28.6701 19.5692 29.022 20.0259 29.269C20.4901 29.5161 21.0067 29.6396 21.5757 29.6396ZM23.9004 35.8726C24.1025 35.8726 24.271 35.8014 24.4058 35.6592C24.548 35.5244 24.6191 35.356 24.6191 35.1538V21.2393H23.1929V35.1538C23.1929 35.356 23.2603 35.5244 23.395 35.6592C23.5373 35.8014 23.7057 35.8726 23.9004 35.8726Z" fill="#A6ECB3"/>
</svg>
