<svg width="40" height="40" viewBox="0 0 40 40" fill="none" xmlns="http://www.w3.org/2000/svg">
<path d="M33.6636 14.6134L22.6802 9.5934C22.0887 9.32387 21.5459 9.1292 21.0518 9.00941C20.5576 8.88213 20.071 8.82224 19.5918 8.82973C19.1276 8.82224 18.6447 8.88213 18.1431 9.00941C17.6414 9.1292 17.0986 9.32387 16.5146 9.5934L5.54248 14.6134C5.15316 14.7856 4.85742 15.0215 4.65527 15.3209C4.46061 15.6204 4.36328 15.9349 4.36328 16.2643C4.36328 16.6012 4.46061 16.9157 4.65527 17.2077C4.85742 17.4996 5.15316 17.7355 5.54248 17.9152L9.91113 19.8805L17.1885 16.4889C17.1361 16.4215 17.1099 16.3467 17.1099 16.2643C17.1099 15.9948 17.2297 15.7552 17.4692 15.5455C17.7163 15.3359 18.0308 15.1712 18.4126 15.0514C18.8019 14.9316 19.21 14.8717 19.6367 14.8717C20.0635 14.8717 20.4678 14.9316 20.8496 15.0514C21.2314 15.1712 21.5422 15.3359 21.7817 15.5455C22.0213 15.7552 22.1411 15.9948 22.1411 16.2643C22.1411 16.5413 22.0213 16.7884 21.7817 17.0055C21.5422 17.2151 21.2314 17.3836 20.8496 17.5109C20.4678 17.6307 20.0635 17.6906 19.6367 17.6906C19.2249 17.6906 18.8431 17.6344 18.4912 17.5221L11.6406 20.7116L16.5146 22.9464C17.1061 23.216 17.6489 23.4144 18.1431 23.5416C18.6447 23.6614 19.1276 23.7176 19.5918 23.7101C20.071 23.7176 20.5576 23.6577 21.0518 23.5304C21.5459 23.4031 22.0887 23.2085 22.6802 22.9464L33.6636 17.9152C34.0454 17.7355 34.3374 17.4996 34.5396 17.2077C34.7417 16.9157 34.8428 16.6012 34.8428 16.2643C34.8428 15.9349 34.7417 15.6204 34.5396 15.3209C34.3374 15.0215 34.0454 14.7856 33.6636 14.6134ZM11.6069 22.4972V29.0895C12.5802 29.681 13.7445 30.1414 15.0996 30.4708C16.4622 30.8078 17.9596 30.9762 19.5918 30.9762C21.2464 30.9762 22.7513 30.8115 24.1064 30.4821C25.4691 30.1526 26.6408 29.6959 27.6216 29.112C28.6024 28.528 29.3586 27.8541 29.8901 27.0905C30.4292 26.3193 30.6987 25.4995 30.6987 24.631V21.0709L23.3652 24.4288C22.0026 25.0503 20.7448 25.3572 19.5918 25.3497C18.4538 25.3572 17.1997 25.0503 15.8296 24.4288L11.6069 22.4972ZM8.49609 21.0709V24.631C8.49609 25.1176 8.61963 25.638 8.8667 26.192C9.12126 26.7461 9.48438 27.2702 9.95605 27.7643V21.7448L8.49609 21.0709ZM9.95605 31.5153L11.6069 31.5265V29.0895C11.285 28.8948 10.9818 28.6852 10.6973 28.4606C10.4202 28.2435 10.1732 28.0114 9.95605 27.7643V31.5153ZM8.96777 31.7623V34.671C8.96777 35.1502 9.11003 35.532 9.39453 35.8165C9.68652 36.1085 10.0721 36.2545 10.5513 36.2545H11.0005C11.4797 36.2545 11.8615 36.1085 12.146 35.8165C12.438 35.532 12.584 35.1502 12.584 34.671V31.7623C12.584 31.2832 12.438 30.8976 12.146 30.6056C11.8615 30.3211 11.4797 30.1788 11.0005 30.1788H10.5513C10.0721 30.1788 9.68652 30.3211 9.39453 30.6056C9.11003 30.8976 8.96777 31.2832 8.96777 31.7623Z" fill="#A6ECB3"/>
</svg>
