<svg width="25" height="24" viewBox="0 0 25 24" fill="none" xmlns="http://www.w3.org/2000/svg">
<path d="M12.5835 21.167C13.8947 21.167 15.1286 20.9165 16.2852 20.4155C17.4417 19.9207 18.4622 19.2311 19.3467 18.3467C20.2311 17.4622 20.9238 16.4417 21.4248 15.2852C21.9258 14.1286 22.1763 12.8947 22.1763 11.5835C22.1763 10.2723 21.9258 9.03841 21.4248 7.88184C20.9238 6.72526 20.2311 5.70785 19.3467 4.82959C18.4622 3.94515 17.4417 3.25244 16.2852 2.75146C15.1286 2.25049 13.8916 2 12.5742 2C11.263 2 10.0291 2.25049 8.87256 2.75146C7.72217 3.25244 6.70475 3.94515 5.82031 4.82959C4.94206 5.70785 4.25244 6.72526 3.75146 7.88184C3.25049 9.03841 3 10.2723 3 11.5835C3 12.8947 3.25049 14.1286 3.75146 15.2852C4.25244 16.4417 4.94206 17.4622 5.82031 18.3467C6.70475 19.2311 7.72526 19.9207 8.88184 20.4155C10.0384 20.9165 11.2723 21.167 12.5835 21.167ZM11.5537 16.1572C11.3743 16.1572 11.2135 16.1201 11.0713 16.0459C10.929 15.9717 10.7899 15.8511 10.6538 15.6841L8.38086 12.9194C8.30046 12.8143 8.23861 12.7061 8.19531 12.5947C8.15202 12.4834 8.13037 12.369 8.13037 12.2515C8.13037 12.0164 8.21077 11.8154 8.37158 11.6484C8.53857 11.4753 8.73958 11.3887 8.97461 11.3887C9.12305 11.3887 9.25602 11.4196 9.37354 11.4814C9.49105 11.5433 9.61165 11.6515 9.73535 11.8062L11.5166 14.0698L15.3574 7.92822C15.5553 7.60661 15.8058 7.4458 16.1089 7.4458C16.3377 7.4458 16.5418 7.52002 16.7212 7.66846C16.9067 7.81689 16.9995 8.01172 16.9995 8.25293C16.9995 8.35807 16.9748 8.4694 16.9253 8.58691C16.8758 8.69824 16.8201 8.80339 16.7583 8.90234L12.4165 15.6748C12.3052 15.8356 12.1753 15.9562 12.0269 16.0366C11.8846 16.117 11.7269 16.1572 11.5537 16.1572Z" fill="#DAB0EE"/>
<path d="M11.5537 16.1572C11.3743 16.1572 11.2135 16.1201 11.0713 16.0459C10.929 15.9717 10.7899 15.8511 10.6538 15.6841L8.38086 12.9194C8.30046 12.8143 8.23861 12.7061 8.19531 12.5947C8.15202 12.4834 8.13037 12.369 8.13037 12.2515C8.13037 12.0164 8.21077 11.8154 8.37158 11.6484C8.53857 11.4753 8.73958 11.3887 8.97461 11.3887C9.12305 11.3887 9.25602 11.4196 9.37354 11.4814C9.49105 11.5433 9.61165 11.6515 9.73535 11.8062L11.5166 14.0698L15.3574 7.92822C15.5553 7.60661 15.8058 7.4458 16.1089 7.4458C16.3377 7.4458 16.5418 7.52002 16.7212 7.66846C16.9067 7.81689 16.9995 8.01172 16.9995 8.25293C16.9995 8.35807 16.9748 8.4694 16.9253 8.58691C16.8758 8.69824 16.8201 8.80339 16.7583 8.90234L12.4165 15.6748C12.3052 15.8356 12.1753 15.9562 12.0269 16.0366C11.8846 16.117 11.7269 16.1572 11.5537 16.1572Z" fill="black"/>
</svg>
