<svg width="90" height="40" viewBox="0 0 90 40" fill="none" xmlns="http://www.w3.org/2000/svg">
<path d="M6.2 12.28H9.68V3.28H13.88V12.28H17.36V3.28H22L21.56 16H2V3.28H6.2V12.28Z" fill="#1A1A1A"/>
<path d="M32.8275 16L28.3875 10.12V16H24L24.1875 3.28H28.3875V9.16L32.8275 3.28H37.3875L32.5875 9.52L37.7475 16H32.8275Z" fill="#1A1A1A"/>
<path d="M39.4936 4.84C40.8216 3.56 42.5576 2.92 44.7016 2.92C46.8456 2.92 48.5816 3.56 49.9096 4.84C51.2376 6.104 51.9016 7.704 51.9016 9.64C51.9016 11.576 51.2376 13.184 49.9096 14.464C48.5816 15.728 46.8456 16.36 44.7016 16.36C42.5576 16.36 40.8216 15.728 39.4936 14.464C38.1656 13.184 37.5016 11.576 37.5016 9.64C37.5016 7.704 38.1656 6.104 39.4936 4.84ZM46.7416 7.384C46.1816 6.808 45.5016 6.52 44.7016 6.52C43.9016 6.52 43.2216 6.808 42.6616 7.384C42.1016 7.96 41.8216 8.712 41.8216 9.64C41.8216 10.568 42.1016 11.32 42.6616 11.896C43.2216 12.472 43.9016 12.76 44.7016 12.76C45.5016 12.76 46.1816 12.472 46.7416 11.896C47.3016 11.32 47.5816 10.568 47.5816 9.64C47.5816 8.712 47.3016 7.96 46.7416 7.384Z" fill="#1A1A1A"/>
<path d="M58.9541 6.88L58.7141 10C58.5541 12.176 58.0341 13.76 57.1541 14.752C56.2741 15.728 54.9141 16.304 53.0741 16.48L52.3541 12.88C53.0421 12.816 53.5701 12.568 53.9381 12.136C54.3061 11.704 54.5381 10.992 54.6341 10L55.2341 3.28H66.4399L66.1541 16H61.9541V7L58.9541 6.88Z" fill="#1A1A1A"/>
<path d="M73.9256 13.24C74.4216 13.24 74.8616 13.064 75.2456 12.712C75.6296 12.344 75.8856 11.984 76.0136 11.632L76.2056 11.08C75.6456 10.68 75.0056 10.48 74.2856 10.48C73.7256 10.48 73.2856 10.624 72.9656 10.912C72.6456 11.2 72.4856 11.536 72.4856 11.92C72.4856 12.304 72.6056 12.624 72.8456 12.88C73.1016 13.12 73.4616 13.24 73.9256 13.24ZM74.2856 2.92C76.3496 2.92 77.8856 3.368 78.8936 4.264C79.9016 5.144 80.4056 6.416 80.4056 8.08L81 16H76.3256L76.2056 14.32H76.0856C76.0536 14.368 76.0136 14.44 75.9656 14.536C75.9176 14.632 75.7816 14.8 75.5576 15.04C75.3496 15.264 75.1096 15.472 74.8376 15.664C74.5816 15.84 74.2216 16 73.7576 16.144C73.2936 16.288 72.7896 16.36 72.2456 16.36C70.9976 16.36 70.0056 16.016 69.2696 15.328C68.5336 14.64 68.1656 13.744 68.1656 12.64C68.1656 11.392 68.5976 10.4 69.4616 9.664C70.3256 8.928 71.5736 8.56 73.2056 8.56C73.8136 8.56 74.3656 8.624 74.8616 8.752C75.3576 8.864 75.7016 8.976 75.8936 9.088L76.2056 9.28V8.56C76.2056 7.2 75.3656 6.52 73.6856 6.52C72.8696 6.52 72.0776 6.656 71.3096 6.928C70.5576 7.184 70.0056 7.44 69.6536 7.696L69.1256 8.08L68.7656 8V4.6C68.9256 4.472 69.1576 4.32 69.4616 4.144C69.7656 3.952 70.3976 3.704 71.3576 3.4C72.3176 3.08 73.2936 2.92 74.2856 2.92Z" fill="#1A1A1A"/>
<path d="M10.64 36L6.2 30.12V36H2V23.28H6.2V29.16L10.64 23.28H15.2L10.4 29.52L15.56 36H10.64Z" fill="#1A1A1A"/>
<path d="M21.0741 33.24C21.5701 33.24 22.0101 33.064 22.3941 32.712C22.7781 32.344 23.0341 31.984 23.1621 31.632L23.3541 31.08C22.7941 30.68 22.1541 30.48 21.4341 30.48C20.8741 30.48 20.4341 30.624 20.1141 30.912C19.7941 31.2 19.6341 31.536 19.6341 31.92C19.6341 32.304 19.7541 32.624 19.9941 32.88C20.2501 33.12 20.6101 33.24 21.0741 33.24ZM21.4341 22.92C23.4981 22.92 25.0341 23.368 26.0421 24.264C27.0501 25.144 27.5541 26.416 27.5541 28.08V36H23.4741L23.3541 34.32H23.2341C23.2021 34.368 23.1621 34.44 23.1141 34.536C23.0661 34.632 22.9301 34.8 22.7061 35.04C22.4981 35.264 22.2581 35.472 21.9861 35.664C21.7301 35.84 21.3701 36 20.9061 36.144C20.4421 36.288 19.9381 36.36 19.3941 36.36C18.1461 36.36 17.1541 36.016 16.4181 35.328C15.6821 34.64 15.3141 33.744 15.3141 32.64C15.3141 31.392 15.7461 30.4 16.6101 29.664C17.4741 28.928 18.7221 28.56 20.3541 28.56C20.9621 28.56 21.5141 28.624 22.0101 28.752C22.5061 28.864 22.8501 28.976 23.0421 29.088L23.3541 29.28V28.56C23.3541 27.2 22.5141 26.52 20.8341 26.52C20.0181 26.52 19.2261 26.656 18.4581 26.928C17.7061 27.184 17.1541 27.44 16.8021 27.696L16.2741 28.08L15.9141 28V24.6C16.0741 24.472 16.3061 24.32 16.6101 24.144C16.9141 23.952 17.5461 23.704 18.5061 23.4C19.4661 23.08 20.4421 22.92 21.4341 22.92Z" fill="#1A1A1A"/>
<path d="M28.7425 39.12L28.5 32.4H30.0625C30.1425 32.336 30.2385 32.24 30.3505 32.112C30.4785 31.968 30.6545 31.64 30.8785 31.128C31.1025 30.616 31.2305 30.04 31.2625 29.4L31.6225 23.28H42.3025V32.4H44.2225V39.12H40L40.0225 36H32.9425L33 39.1775L28.7425 39.12ZM35.3425 26.88L35.2225 29.4C35.1905 30.04 35.0865 30.616 34.9105 31.128C34.7345 31.624 34.5665 31.96 34.4065 32.136L34.1425 32.4H38.1025V27L35.3425 26.88Z" fill="#1A1A1A"/>
<path d="M47.1498 24.84C48.4778 23.56 50.2138 22.92 52.3578 22.92C54.5018 22.92 56.2378 23.56 57.5658 24.84C58.8938 26.104 59.5578 27.704 59.5578 29.64C59.5578 31.576 58.8938 33.184 57.5658 34.464C56.2378 35.728 54.5018 36.36 52.3578 36.36C50.2138 36.36 48.4778 35.728 47.1498 34.464C45.8218 33.184 45.1578 31.576 45.1578 29.64C45.1578 27.704 45.8218 26.104 47.1498 24.84ZM54.3978 27.384C53.8378 26.808 53.1578 26.52 52.3578 26.52C51.5578 26.52 50.8778 26.808 50.3178 27.384C49.7578 27.96 49.4778 28.712 49.4778 29.64C49.4778 30.568 49.7578 31.32 50.3178 31.896C50.8778 32.472 51.5578 32.76 52.3578 32.76C53.1578 32.76 53.8378 32.472 54.3978 31.896C54.9578 31.32 55.2378 30.568 55.2378 29.64C55.2378 28.712 54.9578 27.96 54.3978 27.384Z" fill="#1A1A1A"/>
<path d="M66.6103 26.88L66.3703 30C66.2103 32.176 65.6903 33.76 64.8103 34.752C63.9303 35.728 62.5703 36.304 60.7303 36.48L60.0103 32.88C60.6983 32.816 61.2263 32.568 61.5943 32.136C61.9623 31.704 62.1943 30.992 62.2903 30L62.8903 23.28H73.8103L74 36H69.6103V27L66.6103 26.88Z" fill="#1A1A1A"/>
<path d="M81.5819 33.24C82.0779 33.24 82.5179 33.064 82.9019 32.712C83.2859 32.344 83.5419 31.984 83.6699 31.632L83.8619 31.08C83.3019 30.68 82.6619 30.48 81.9419 30.48C81.3819 30.48 80.9419 30.624 80.6219 30.912C80.3019 31.2 80.1419 31.536 80.1419 31.92C80.1419 32.304 80.2619 32.624 80.5019 32.88C80.7579 33.12 81.1179 33.24 81.5819 33.24ZM81.9419 22.92C84.0059 22.92 85.5419 23.368 86.5499 24.264C87.5579 25.144 88.0619 26.416 88.0619 28.08L88.4399 36H83.9819L83.8619 34.32H83.7419C83.7099 34.368 83.6699 34.44 83.6219 34.536C83.5739 34.632 83.4379 34.8 83.2139 35.04C83.0059 35.264 82.7659 35.472 82.4939 35.664C82.2379 35.84 81.8779 36 81.4139 36.144C80.9499 36.288 80.4459 36.36 79.9019 36.36C78.6539 36.36 77.6619 36.016 76.9259 35.328C76.1899 34.64 75.8219 33.744 75.8219 32.64C75.8219 31.392 76.2539 30.4 77.1179 29.664C77.9819 28.928 79.2299 28.56 80.8619 28.56C81.4699 28.56 82.0219 28.624 82.5179 28.752C83.0139 28.864 83.3579 28.976 83.5499 29.088L83.8619 29.28V28.56C83.8619 27.2 83.0219 26.52 81.3419 26.52C80.5259 26.52 79.7339 26.656 78.9659 26.928C78.2139 27.184 77.6619 27.44 77.3099 27.696L76.7819 28.08L76.4219 28V24.6C76.5819 24.472 76.8139 24.32 77.1179 24.144C77.4219 23.952 78.0539 23.704 79.0139 23.4C79.9739 23.08 80.9499 22.92 81.9419 22.92Z" fill="#1A1A1A"/>
</svg>
