<svg width="148" height="64" viewBox="0 0 148 64" fill="none" xmlns="http://www.w3.org/2000/svg">
<path d="M9 19.8002H14.8V4.80019H21.8V19.8002H27.6V4.80019H34.6V26.0002H2V4.80019H9V19.8002Z" fill="white"/>
<path d="M53.4 26.0002L46 16.2002V26.0002H39V4.80019H46V14.6002L53.4 4.80019H61L53 15.2002L61.6 26.0002H53.4Z" fill="white"/>
<path d="M64.3434 7.40019C66.5568 5.26686 69.4501 4.2002 73.0234 4.2002C76.5968 4.2002 79.4901 5.26686 81.7034 7.40019C83.9168 9.50686 85.0234 12.1735 85.0234 15.4002C85.0234 18.6269 83.9168 21.3069 81.7034 23.4402C79.4901 25.5469 76.5968 26.6002 73.0234 26.6002C69.4501 26.6002 66.5568 25.5469 64.3434 23.4402C62.1301 21.3069 61.0234 18.6269 61.0234 15.4002C61.0234 12.1735 62.1301 9.50686 64.3434 7.40019ZM76.4234 11.6402C75.4901 10.6802 74.3568 10.2002 73.0234 10.2002C71.6901 10.2002 70.5568 10.6802 69.6234 11.6402C68.6901 12.6002 68.2234 13.8535 68.2234 15.4002C68.2234 16.9469 68.6901 18.2002 69.6234 19.1602C70.5568 20.1202 71.6901 20.6002 73.0234 20.6002C74.3568 20.6002 75.4901 20.1202 76.4234 19.1602C77.3568 18.2002 77.8234 16.9469 77.8234 15.4002C77.8234 13.8535 77.3568 12.6002 76.4234 11.6402Z" fill="white"/>
<path d="M96.6109 10.8002L96.2109 16.0002C95.9443 19.6269 95.0776 22.2669 93.6109 23.9202C92.1443 25.5469 89.8776 26.5069 86.8109 26.8002L85.6109 20.8002C86.7576 20.6935 87.6376 20.2802 88.2509 19.5602C88.8643 18.8402 89.2509 17.6535 89.4109 16.0002L90.4109 4.80019H109V26.0002H101.611V10.8002H96.6109Z" fill="white"/>
<path d="M121.2 21.4002C122.027 21.4002 122.76 21.1069 123.4 20.5202C124.04 19.9069 124.467 19.3069 124.68 18.7202L125 17.8002C124.067 17.1335 123 16.8002 121.8 16.8002C120.867 16.8002 120.133 17.0402 119.6 17.5202C119.067 18.0002 118.8 18.5602 118.8 19.2002C118.8 19.8402 119 20.3735 119.4 20.8002C119.827 21.2002 120.427 21.4002 121.2 21.4002ZM121.8 4.2002C125.24 4.2002 127.8 4.94686 129.48 6.4402C131.16 7.90686 132 10.0269 132 12.8002V26.0002H125.2L125 23.2002H124.8C124.747 23.2802 124.68 23.4002 124.6 23.5602C124.52 23.7202 124.293 24.0002 123.92 24.4002C123.573 24.7735 123.173 25.1202 122.72 25.4402C122.293 25.7335 121.693 26.0002 120.92 26.2402C120.147 26.4802 119.307 26.6002 118.4 26.6002C116.32 26.6002 114.667 26.0269 113.44 24.8802C112.213 23.7335 111.6 22.2402 111.6 20.4002C111.6 18.3202 112.32 16.6669 113.76 15.4402C115.2 14.2135 117.28 13.6002 120 13.6002C121.013 13.6002 121.933 13.7069 122.76 13.9202C123.587 14.1069 124.16 14.2935 124.48 14.4802L125 14.8002V13.6002C125 11.3335 123.6 10.2002 120.8 10.2002C119.44 10.2002 118.12 10.4269 116.84 10.8802C115.587 11.3069 114.667 11.7335 114.08 12.1602L113.2 12.8002H112.6V7.0002C112.867 6.78686 113.253 6.53353 113.76 6.2402C114.267 5.92019 115.32 5.50686 116.92 5.00019C118.52 4.46686 120.147 4.2002 121.8 4.2002Z" fill="white"/>
<path d="M16.4 58.0002L9 48.2002V58.0002H2V36.8002H9V46.6002L16.4 36.8002H24L16 47.2002L24.6 58.0002H16.4Z" fill="white"/>
<path d="M33.6234 53.4002C34.4501 53.4002 35.1834 53.1069 35.8234 52.5202C36.4634 51.9069 36.8901 51.3069 37.1034 50.7202L37.4234 49.8002C36.4901 49.1335 35.4234 48.8002 34.2234 48.8002C33.2901 48.8002 32.5568 49.0402 32.0234 49.5202C31.4901 50.0002 31.2234 50.5602 31.2234 51.2002C31.2234 51.8402 31.4234 52.3735 31.8234 52.8002C32.2501 53.2002 32.8501 53.4002 33.6234 53.4002ZM34.2234 36.2002C37.6634 36.2002 40.2234 36.9469 41.9034 38.4402C43.5834 39.9069 44.4234 42.0269 44.4234 44.8002V58.0002H37.6234L37.4234 55.2002H37.2234C37.1701 55.2802 37.1034 55.4002 37.0234 55.5602C36.9434 55.7202 36.7168 56.0002 36.3434 56.4002C35.9968 56.7735 35.5968 57.1202 35.1434 57.4402C34.7168 57.7335 34.1168 58.0002 33.3434 58.2402C32.5701 58.4802 31.7301 58.6002 30.8234 58.6002C28.7434 58.6002 27.0901 58.0269 25.8634 56.8802C24.6368 55.7335 24.0234 54.2402 24.0234 52.4002C24.0234 50.3202 24.7434 48.6669 26.1834 47.4402C27.6234 46.2135 29.7034 45.6002 32.4234 45.6002C33.4368 45.6002 34.3568 45.7069 35.1834 45.9202C36.0101 46.1069 36.5834 46.2935 36.9034 46.4802L37.4234 46.8002V45.6002C37.4234 43.3335 36.0234 42.2002 33.2234 42.2002C31.8634 42.2002 30.5434 42.4269 29.2634 42.8802C28.0101 43.3069 27.0901 43.7335 26.5034 44.1602L25.6234 44.8002H25.0234V39.0002C25.2901 38.7869 25.6768 38.5335 26.1834 38.2402C26.6901 37.9202 27.7434 37.5069 29.3434 37.0002C30.9434 36.4669 32.5701 36.2002 34.2234 36.2002Z" fill="white"/>
<path d="M46 63V52.0002H48.4C48.5333 51.8935 48.6933 51.7335 48.88 51.5202C49.0933 51.2802 49.3867 50.7335 49.76 49.8802C50.1333 49.0269 50.3467 48.0669 50.4 47.0002L51 36.8002H68.8V52.0002H72V63H65V58.0002H53.2V63H46ZM57.2 42.8002L57 47.0002C56.9467 48.0669 56.7733 49.0269 56.48 49.8802C56.1867 50.7069 55.9067 51.2669 55.64 51.5602L55.2 52.0002H61.8V42.8002H57.2Z" fill="white"/>
<path d="M76.7497 39.4002C78.963 37.2669 81.8564 36.2002 85.4297 36.2002C89.003 36.2002 91.8964 37.2669 94.1097 39.4002C96.323 41.5069 97.4297 44.1735 97.4297 47.4002C97.4297 50.6269 96.323 53.3069 94.1097 55.4402C91.8964 57.5469 89.003 58.6002 85.4297 58.6002C81.8564 58.6002 78.963 57.5469 76.7497 55.4402C74.5364 53.3069 73.4297 50.6269 73.4297 47.4002C73.4297 44.1735 74.5364 41.5069 76.7497 39.4002ZM88.8297 43.6402C87.8964 42.6802 86.763 42.2002 85.4297 42.2002C84.0964 42.2002 82.963 42.6802 82.0297 43.6402C81.0964 44.6002 80.6297 45.8535 80.6297 47.4002C80.6297 48.9469 81.0964 50.2002 82.0297 51.1602C82.963 52.1202 84.0964 52.6002 85.4297 52.6002C86.763 52.6002 87.8964 52.1202 88.8297 51.1602C89.763 50.2002 90.2297 48.9469 90.2297 47.4002C90.2297 45.8535 89.763 44.6002 88.8297 43.6402Z" fill="white"/>
<path d="M109 42.8002L108.6 48.0002C108.333 51.6269 107.467 54.2669 106 55.9202C104.533 57.5469 102.267 58.5069 99.2 58.8002L98 52.8002C99.1467 52.6935 100.027 52.2802 100.64 51.5602C101.253 50.8402 101.64 49.6535 101.8 48.0002L102.8 36.8002H121V58.0002H114V42.8002H109Z" fill="white"/>
<path d="M133.2 53.4002C134.027 53.4002 134.76 53.1069 135.4 52.5202C136.04 51.9069 136.467 51.3069 136.68 50.7202L137 49.8002C136.067 49.1335 135 48.8002 133.8 48.8002C132.867 48.8002 132.133 49.0402 131.6 49.5202C131.067 50.0002 130.8 50.5602 130.8 51.2002C130.8 51.8402 131 52.3735 131.4 52.8002C131.827 53.2002 132.427 53.4002 133.2 53.4002ZM133.8 36.2002C137.24 36.2002 139.8 36.9469 141.48 38.4402C143.16 39.9069 144 42.0269 144 44.8002V58.0002H137.2L137 55.2002H136.8C136.747 55.2802 136.68 55.4002 136.6 55.5602C136.52 55.7202 136.293 56.0002 135.92 56.4002C135.573 56.7735 135.173 57.1202 134.72 57.4402C134.293 57.7335 133.693 58.0002 132.92 58.2402C132.147 58.4802 131.307 58.6002 130.4 58.6002C128.32 58.6002 126.667 58.0269 125.44 56.8802C124.213 55.7335 123.6 54.2402 123.6 52.4002C123.6 50.3202 124.32 48.6669 125.76 47.4402C127.2 46.2135 129.28 45.6002 132 45.6002C133.013 45.6002 133.933 45.7069 134.76 45.9202C135.587 46.1069 136.16 46.2935 136.48 46.4802L137 46.8002V45.6002C137 43.3335 135.6 42.2002 132.8 42.2002C131.44 42.2002 130.12 42.4269 128.84 42.8802C127.587 43.3069 126.667 43.7335 126.08 44.1602L125.2 44.8002H124.6V39.0002C124.867 38.7869 125.253 38.5335 125.76 38.2402C126.267 37.9202 127.32 37.5069 128.92 37.0002C130.52 36.4669 132.147 36.2002 133.8 36.2002Z" fill="white"/>
</svg>
