<svg width="25" height="24" viewBox="0 0 25 24" fill="none" xmlns="http://www.w3.org/2000/svg">
<path d="M15.8918 19.4961L15.8877 19.4979C14.8616 19.9424 13.7636 20.167 12.5835 20.167C11.4034 20.167 10.3054 19.9424 9.27931 19.4979L9.27516 19.4961C8.23561 19.0514 7.32218 18.434 6.52868 17.6408C5.7399 16.8462 5.12081 15.9306 4.66908 14.8877C4.22464 13.8616 4 12.7636 4 11.5835C4 10.4034 4.22464 9.30535 4.66908 8.27931C5.12077 7.23653 5.73954 6.32458 6.52742 5.5367C7.32278 4.74134 8.2354 4.11977 9.27096 3.66868C10.2967 3.22451 11.3945 3 12.5742 3C13.7612 3 14.8622 3.2249 15.8877 3.66908C16.9296 4.1204 17.8449 4.74199 18.6396 5.5367L18.6421 5.53917C19.4353 6.32685 20.0562 7.23802 20.5072 8.27931C20.9516 9.30535 21.1763 10.4034 21.1763 11.5835C21.1763 12.7636 20.9516 13.8616 20.5072 14.8877C20.0559 15.9296 19.4343 16.8449 18.6396 17.6396C17.8458 18.4334 16.9319 19.0512 15.8918 19.4961Z" stroke="black" stroke-width="2"/>
</svg>
